%FSLAX45Y45*%
G04 Gerber Fmt 4.5, Leading zero omitted, Abs format (unit mm)*
G04 Created by KiCad (PCBNEW (5.1.6)-1) date 2020-10-05 09:36:19*
%MOMM*%
%LPD*%
G01*
G04 APERTURE LIST*
%TA.AperFunction,Profile*%
%ADD10C,0.100000*%
%TD*%
%ADD11C,0.200000*%
%ADD12C,0.300000*%
G04 APERTURE END LIST*
D10*
X14528800Y-7975600D02*
X14833600Y-8280400D01*
X13563600Y-7975600D02*
X14528800Y-7975600D01*
X13208000Y-8382000D02*
X13563600Y-7975600D01*
X10464800Y-8382000D02*
X13208000Y-8382000D01*
X9296400Y-9499600D02*
X10464800Y-8382000D01*
X9296400Y-12598400D02*
X9296400Y-9499600D01*
X17780000Y-12598400D02*
X9296400Y-12598400D01*
X17780000Y-8280400D02*
X17780000Y-12598400D01*
X14833600Y-8280400D02*
X17780000Y-8280400D01*
D11*
D12*
X9577828Y-13069114D02*
X9577828Y-12769114D01*
X9649257Y-12769114D01*
X9692114Y-12783400D01*
X9720686Y-12811971D01*
X9734971Y-12840543D01*
X9749257Y-12897686D01*
X9749257Y-12940543D01*
X9734971Y-12997686D01*
X9720686Y-13026257D01*
X9692114Y-13054829D01*
X9649257Y-13069114D01*
X9577828Y-13069114D01*
X9877828Y-13069114D02*
X9877828Y-12869114D01*
X9877828Y-12926257D02*
X9892114Y-12897686D01*
X9906400Y-12883400D01*
X9934971Y-12869114D01*
X9963543Y-12869114D01*
X10063543Y-13069114D02*
X10063543Y-12869114D01*
X10063543Y-12769114D02*
X10049257Y-12783400D01*
X10063543Y-12797686D01*
X10077828Y-12783400D01*
X10063543Y-12769114D01*
X10063543Y-12797686D01*
X10249257Y-13069114D02*
X10220686Y-13054829D01*
X10206400Y-13026257D01*
X10206400Y-12769114D01*
X10406400Y-13069114D02*
X10377828Y-13054829D01*
X10363543Y-13026257D01*
X10363543Y-12769114D01*
X10749257Y-13069114D02*
X10749257Y-12769114D01*
X10849257Y-12983400D01*
X10949257Y-12769114D01*
X10949257Y-13069114D01*
X11220686Y-13069114D02*
X11220686Y-12911971D01*
X11206400Y-12883400D01*
X11177828Y-12869114D01*
X11120686Y-12869114D01*
X11092114Y-12883400D01*
X11220686Y-13054829D02*
X11192114Y-13069114D01*
X11120686Y-13069114D01*
X11092114Y-13054829D01*
X11077828Y-13026257D01*
X11077828Y-12997686D01*
X11092114Y-12969114D01*
X11120686Y-12954829D01*
X11192114Y-12954829D01*
X11220686Y-12940543D01*
X11363543Y-12869114D02*
X11363543Y-13169114D01*
X11363543Y-12883400D02*
X11392114Y-12869114D01*
X11449257Y-12869114D01*
X11477828Y-12883400D01*
X11492114Y-12897686D01*
X11506400Y-12926257D01*
X11506400Y-13011971D01*
X11492114Y-13040543D01*
X11477828Y-13054829D01*
X11449257Y-13069114D01*
X11392114Y-13069114D01*
X11363543Y-13054829D01*
X11634971Y-13040543D02*
X11649257Y-13054829D01*
X11634971Y-13069114D01*
X11620686Y-13054829D01*
X11634971Y-13040543D01*
X11634971Y-13069114D01*
X11634971Y-12883400D02*
X11649257Y-12897686D01*
X11634971Y-12911971D01*
X11620686Y-12897686D01*
X11634971Y-12883400D01*
X11634971Y-12911971D01*
M02*
